<svg width="30" height="30" viewBox="0 0 30 30" fill="none" xmlns="http://www.w3.org/2000/svg">
<g clip-path="url(#clip0_47462_762)">
<path d="M19.465 15.484C18.1682 13.4527 15.9595 12.2399 13.5567 12.2399C11.1539 12.2399 8.94519 13.4527 7.64857 15.484L4.52366 20.3786C4.00519 21.1906 3.76596 22.1288 3.83171 23.0911C3.89745 24.0536 4.26223 24.95 4.88646 25.6838C5.51114 26.4169 6.33656 26.9181 7.27346 27.1331C8.21036 27.3481 9.17079 27.2563 10.0507 26.868L10.1097 26.8417C12.3238 25.884 14.854 25.8928 17.0624 26.868C17.6321 27.1194 18.2357 27.2466 18.8448 27.2466C19.1759 27.2466 19.509 27.2088 19.8391 27.1333C20.776 26.9185 21.6014 26.4174 22.2263 25.684C22.8507 24.9508 23.2157 24.0543 23.2817 23.0916C23.3477 22.1288 23.1084 21.1908 22.59 20.3784L19.465 15.484Z" fill="#F52456"/>
<path d="M5.36528 15.4776C6.29493 15.1191 7.00118 14.3669 7.35386 13.3596C7.68962 12.401 7.66213 11.3188 7.27625 10.3121C6.89014 9.3061 6.18785 8.48486 5.29866 7.99939C4.36462 7.48965 3.33845 7.40664 2.41034 7.76582C0.543136 8.48662 -0.313729 10.8033 0.50048 12.9313C1.15088 14.625 2.66782 15.6941 4.20147 15.6941C4.59307 15.6941 4.98577 15.6244 5.36528 15.4776Z" fill="#F52456"/>
<path d="M11.4287 11.643C13.7629 11.643 15.662 9.47064 15.662 6.80049C15.662 4.12968 13.7629 1.95691 11.4287 1.95691C9.09467 1.95691 7.1958 4.12968 7.1958 6.80049C7.1958 9.47064 9.09467 11.643 11.4287 11.643Z" fill="#F52456"/>
<path d="M18.7397 12.8326H18.7399C19.099 12.9523 19.4653 13.0095 19.83 13.0095C21.5323 13.0095 23.1913 11.7654 23.8244 9.85362C24.1889 8.75311 24.1649 7.58946 23.7568 6.57725C23.3298 5.51758 22.5385 4.74844 21.5284 4.41133C20.518 4.07422 19.4255 4.21485 18.4516 4.80694C17.5213 5.37254 16.8085 6.29026 16.4444 7.39077C15.6759 9.71233 16.7056 12.1536 18.7397 12.8326Z" fill="#F52456"/>
<path d="M27.6546 12.2675L27.6539 12.2668C26.0442 11.0729 23.6368 11.5904 22.2869 13.421C20.9384 15.2525 21.1493 17.7147 22.7566 18.9094C23.3428 19.3454 24.0354 19.5538 24.7443 19.5538C25.9798 19.5538 27.2652 18.9207 28.1245 17.7564C29.4728 15.9249 29.2621 13.4627 27.6546 12.2675Z" fill="#F52456"/>
</g>
<defs>
<clipPath id="clip0_47462_762">
<rect width="28.8199" height="28.9361" fill="white" transform="translate(0.192627 0.148376)"/>
</clipPath>
</defs>
</svg>
