<svg width="40" height="42" viewBox="0 0 40 42" fill="none" xmlns="http://www.w3.org/2000/svg">
<path d="M39.8712 12.1943C39.8467 10.4605 39.5358 8.74035 38.9405 7.11871C37.8987 4.34956 35.7774 2.15989 33.092 1.08796C31.5393 0.485575 29.8978 0.162622 28.2363 0.125975C26.0995 0.0274855 25.422 0 19.9978 0C14.5735 0 13.8783 1.53586e-07 11.757 0.125975C10.0977 0.162622 8.45624 0.485575 6.9036 1.08796C4.21813 2.15989 2.09462 4.34956 1.05509 7.11871C0.470902 8.71973 0.155486 10.4124 0.124389 12.1233C0.028876 14.329 0 15.0276 0 20.6209C0 26.2142 -1.65495e-08 26.9288 0.124389 29.1185C0.157708 30.8317 0.470902 32.5221 1.05509 34.1277C2.09685 36.8945 4.21813 39.0842 6.90582 40.1561C8.4518 40.7791 10.0933 41.1318 11.7592 41.1868C13.8983 41.2853 14.5757 41.3151 20 41.3151C25.4243 41.3151 26.1195 41.3151 28.2408 41.1868C29.9 41.1525 31.5415 40.8295 33.0964 40.2271C35.7819 39.1529 37.9032 36.9632 38.9449 34.1964C39.5291 32.5931 39.8423 30.9027 39.8756 29.1872C39.9711 26.9838 40 26.2852 40 20.6896C39.9956 15.0963 39.9956 14.3863 39.8712 12.1943ZM19.9845 31.1982C14.3114 31.1982 9.71568 26.4592 9.71568 20.6094C9.71568 14.7596 14.3114 10.0207 19.9845 10.0207C25.653 10.0207 30.2532 14.7596 30.2532 20.6094C30.2532 26.4592 25.653 31.1982 19.9845 31.1982ZM30.6619 12.0981C29.3359 12.0981 28.2674 10.9941 28.2674 9.62904C28.2674 8.26393 29.3359 7.15994 30.6619 7.15994C31.9836 7.15994 33.0542 8.26393 33.0542 9.62904C33.0542 10.9941 31.9836 12.0981 30.6619 12.0981Z" fill="white"/>
<path d="M19.9842 27.4879C23.6681 27.4879 26.6545 24.4084 26.6545 20.6097C26.6545 16.8109 23.6681 13.7314 19.9842 13.7314C16.3002 13.7314 13.3138 16.8109 13.3138 20.6097C13.3138 24.4084 16.3002 27.4879 19.9842 27.4879Z" fill="white"/>
</svg>
