<svg width="40" height="42" viewBox="0 0 40 42" fill="none" xmlns="http://www.w3.org/2000/svg">
<path d="M35.7143 0.0297852H4.28571C1.91964 0.0297852 0 2.00924 0 4.44904V36.8569C0 39.2967 1.91964 41.2761 4.28571 41.2761H35.7143C38.0804 41.2761 40 39.2967 40 36.8569V4.44904C40 2.00924 38.0804 0.0297852 35.7143 0.0297852ZM31.3482 14.6501C31.3661 14.9079 31.3661 15.1749 31.3661 15.4327C31.3661 23.415 25.4732 32.6126 14.7054 32.6126C11.3839 32.6126 8.30357 31.6182 5.71429 29.9058C6.1875 29.961 6.64286 29.9794 7.125 29.9794C9.86607 29.9794 12.3839 29.0219 14.3929 27.4015C11.8214 27.3463 9.66072 25.6062 8.91964 23.2125C9.82143 23.3506 10.6339 23.3506 11.5625 23.102C8.88393 22.5404 6.875 20.1098 6.875 17.1728V17.0991C7.65179 17.5503 8.5625 17.8265 9.51786 17.8633C8.71467 17.3124 8.05623 16.565 7.60131 15.6879C7.14639 14.8107 6.90914 13.8311 6.91071 12.8364C6.91071 11.7132 7.19643 10.682 7.70536 9.78897C10.5893 13.4533 14.9196 15.847 19.7768 16.1048C18.9464 12.0078 21.9196 8.68416 25.4911 8.68416C27.1786 8.68416 28.6964 9.41149 29.7679 10.59C31.0893 10.3322 32.3571 9.8258 33.4821 9.13529C33.0446 10.5347 32.125 11.7132 30.9107 12.4589C32.0893 12.33 33.2321 11.9894 34.2857 11.5198C33.4911 12.7259 32.4911 13.7939 31.3482 14.6501Z" fill="white"/>
</svg>
